# xmcd
#
# Track frame offsets:
#	150
#	23347
#	41405
#	73255
#	105947
#	135577
#	167430
#	197947
#	222442
#	255842
#	284427
#	301642
#
# Disc length: 4294 seconds
#
# Revision: 1
# Processed by: cddbd v1.5.1PL2 Copyright (c) Steve Scherf et al.
# Submitted via: audiograbber 1.83.01
#
DISCID=9910c40c
DTITLE=Phil Guy - Breaking Out On Top
DYEAR=1995
DGENRE=Blues
TTITLE0=Gambler
TTITLE1=Quicksand
TTITLE2=Texas Flood
TTITLE3=Tina Nu
TTITLE4=Where Can I Go
TTITLE5=Professor's Boogie
TTITLE6=Good Thing
TTITLE7=Stone Crazy
TTITLE8=Breaking Out On Top
TTITLE9=Blues With A Feeling
TTITLE10=Winehead
TTITLE11=Garbage Man Blues
EXTD=
EXTT0=
EXTT1=
EXTT2=
EXTT3=
EXTT4=
EXTT5=
EXTT6=
EXTT7=
EXTT8=
EXTT9=
EXTT10=
EXTT11=
PLAYORDER=
